<svg xmlns="http://www.w3.org/2000/svg" viewBox="0 0 151.35 20.5"><defs><style>.cls-1{fill:#231815;}.cls-2{fill:#5d488a;}</style></defs><g id="レイヤー_2" data-name="レイヤー 2"><g id="レイヤー_1-2" data-name="レイヤー 1"><path class="cls-1" d="M109.45,6.44h9a.45.45,0,0,1,.45.45V8.61a.45.45,0,0,1-.45.44h-9v2.27h9a.45.45,0,0,1,.45.45v1.72a.45.45,0,0,1-.45.45h-9v2.7H122a.45.45,0,0,0,.45-.45V3.74h-13Z"/><path class="cls-1" d="M69.25,8.62a.45.45,0,0,1-.45.45H64.1a.45.45,0,0,1-.45-.45V3.76H60V16.64h3.69V11.79a.45.45,0,0,1,.45-.45h4.7a.45.45,0,0,1,.45.45v4.85h3.69V3.76H69.25Z"/><rect class="cls-1" x="96.25" y="7.23" width="2.54" height="9.41"/><path class="cls-1" d="M38.55,7.23a.45.45,0,0,0-.45.45v9h9.48V14.85h-6.5a.45.45,0,0,1-.45-.45V13.12a.45.45,0,0,1,.45-.45h6.05a.45.45,0,0,0,.45-.44v-5ZM44.6,9a.45.45,0,0,1,.45.45v1.28a.45.45,0,0,1-.45.45H41.08a.45.45,0,0,1-.45-.45V9.47A.45.45,0,0,1,41.08,9Z"/><path class="cls-1" d="M74.38,9h6.5a.45.45,0,0,1,.45.45v1a.45.45,0,0,1-.45.45h-6a.45.45,0,0,0-.45.45v5.3h9a.45.45,0,0,0,.45-.45v-9H74.38Zm7,5.38a.45.45,0,0,1-.45.45H77.37a.45.45,0,0,1-.45-.45V12.82a.45.45,0,0,1,.45-.45h3.51a.45.45,0,0,1,.45.45Z"/><path class="cls-1" d="M106.69,7.22h-3.1l-4.18,4.69,4.18,4.68h3.1l-4.08-4.48a.47.47,0,0,1,0-.4Z"/><path class="cls-1" d="M24.13,3.76a.45.45,0,0,0-.45.45v7.13h8.83a.45.45,0,0,1,.45.45v1.7a.45.45,0,0,1-.45.45H23.68v2.7h13V9.51a.45.45,0,0,0-.45-.44H27.82a.45.45,0,0,1-.45-.45V6.91a.45.45,0,0,1,.45-.45h7.34l1.49-2.7Z"/><path class="cls-1" d="M52,14.85a.45.45,0,0,1-.44-.45V9.47A.45.45,0,0,1,52,9h5.52l1-1.79h-9a.45.45,0,0,0-.45.45v9h9.49V14.85Z"/><path class="cls-1" d="M88.3,14.85a.45.45,0,0,1-.45-.45V9.47A.45.45,0,0,1,88.3,9h5.52l1-1.79h-9a.45.45,0,0,0-.44.45v9H94.8V14.85Z"/><path class="cls-1" d="M136.45,9.05h-8.4a.45.45,0,0,1-.45-.44V6.89a.42.42,0,0,1,.45-.42h7.37l1.48-2.7h-13V16.64h12.55a.45.45,0,0,0,.45-.45V9.5A.45.45,0,0,0,136.45,9.05Zm-3.25,4.44a.45.45,0,0,1-.44.45h-4.71a.45.45,0,0,1-.45-.45V11.77a.45.45,0,0,1,.45-.45h4.71a.45.45,0,0,1,.44.45Z"/><path class="cls-1" d="M150.9,9.05h-8.4a.45.45,0,0,1-.45-.44V6.89a.42.42,0,0,1,.45-.42h7.37l1.48-2.7h-13v7.56h8.86a.45.45,0,0,1,.45.45v1.72a.46.46,0,0,1-.45.45H142.5a.45.45,0,0,1-.45-.45v-.83h-3.7v4H150.9a.45.45,0,0,0,.45-.45V9.5A.45.45,0,0,0,150.9,9.05Z"/><polygon class="cls-1" points="3.07 6.89 0 9.96 1.66 15.23 4.72 12.16 3.07 6.89"/><polygon class="cls-1" points="18.64 10.54 16.98 5.27 13.92 8.34 15.57 13.61 18.64 10.54"/><polygon class="cls-2" points="9.96 0 3.63 6.32 5.29 11.6 11.61 5.28 9.96 0"/><polygon class="cls-2" points="13.23 8.52 9.96 7.89 5.8 12.06 14.89 13.8 14.89 13.8 13.23 8.52"/><polygon class="cls-2" points="8.88 13.37 7.03 15.22 8.69 20.5 14.7 14.48 8.88 13.37"/></g></g></svg>